<svg width="62" height="57" viewBox="0 0 62 57" fill="none" xmlns="http://www.w3.org/2000/svg">
<path d="M61.3553 12.8779C60.6087 9.92133 59.0912 7.21495 56.9571 5.03405C54.8229 2.85315 52.1483 1.27555 49.2052 0.461726C45.6522 -0.425142 38.7683 -0.741882 30.9961 6.32139C23.2556 -0.710208 16.4034 -0.425142 12.8504 0.461726C9.90534 1.26798 7.22673 2.83866 5.08701 5.01399C2.94729 7.18932 1.4228 9.89169 0.668616 12.8462C-0.295513 16.6798 -0.215679 20.7011 0.899853 24.4936C2.01538 28.2861 4.12605 31.7118 7.01327 34.4161L28.6803 56.0494C28.9815 56.3564 29.3422 56.5989 29.7403 56.7623C30.1384 56.9256 30.5657 57.0064 30.9961 56.9996C31.8328 56.9877 32.631 56.6462 33.2167 56.0494L54.8837 34.4478C57.7933 31.757 59.928 28.3373 61.0661 24.5441C62.2041 20.7509 62.304 16.7227 61.3553 12.8779Z" fill="black"/>
</svg>
