<svg width="62" height="57" viewBox="0 0 62 57" fill="none" xmlns="http://www.w3.org/2000/svg">
<path d="M61.3553 12.8779C60.6087 9.92133 59.0912 7.21495 56.9571 5.03405C54.8229 2.85315 52.1483 1.27555 49.2052 0.461726C45.6522 -0.425142 38.7683 -0.741882 30.9961 6.32139C23.2556 -0.710208 16.4034 -0.425142 12.8504 0.461726C9.90534 1.26798 7.22673 2.83866 5.08701 5.01399C2.94729 7.18932 1.4228 9.89169 0.668616 12.8462C-0.295513 16.6798 -0.215679 20.7011 0.899853 24.4936C2.01538 28.2861 4.12605 31.7118 7.01327 34.4161L28.6803 56.0494C28.9815 56.3564 29.3422 56.5989 29.7403 56.7623C30.1384 56.9256 30.5657 57.0064 30.9961 56.9996C31.8328 56.9877 32.631 56.6462 33.2167 56.0494L54.8837 34.4478C57.7933 31.757 59.928 28.3373 61.0661 24.5441C62.2041 20.7509 62.304 16.7227 61.3553 12.8779ZM50.379 29.9501L30.9961 49.3345L11.518 29.9501C9.41808 28.044 7.86885 25.6102 7.03188 22.9026C6.1949 20.195 6.10084 17.3128 6.75949 14.5566C7.22313 12.6832 8.16987 10.9636 9.50558 9.56889C10.8413 8.17414 12.5194 7.15281 14.3731 6.60646C15.1304 6.41696 15.9082 6.32122 16.6889 6.32139C19.0054 6.52496 21.2574 7.1905 23.3117 8.27861C25.366 9.36672 27.1808 10.8553 28.6486 12.6562C28.9407 12.9707 29.2938 13.2228 29.6864 13.397C30.079 13.5713 30.503 13.664 30.9326 13.6697C31.3676 13.6683 31.7977 13.5776 32.196 13.4033C32.5944 13.2289 32.9526 12.9746 33.2484 12.6562C38.0704 7.58835 43.2095 5.40285 47.6825 6.51144C49.5407 7.06677 51.2184 8.10384 52.5446 9.51705C53.8709 10.9303 54.7984 12.6691 55.2327 14.5566C55.8799 17.3213 55.7709 20.2088 54.917 22.9169C54.0631 25.6251 52.4957 28.0542 50.379 29.9501Z" fill="black"/>
</svg>
