<svg width="35" height="35" viewBox="0 0 35 35" fill="none" xmlns="http://www.w3.org/2000/svg">
<path d="M34.0604 31.6331L27.656 25.2757C30.142 22.1737 31.3459 18.2364 31.0202 14.2734C30.6944 10.3104 28.8638 6.62291 25.9048 3.96914C22.9457 1.31537 19.0831 -0.102944 15.1113 0.00582353C11.1394 0.114591 7.36006 1.74218 4.55046 4.55392C1.74085 7.36565 0.114504 11.1478 0.00581911 15.1227C-0.102866 19.0976 1.31438 22.9632 3.96613 25.9245C6.61788 28.8858 10.3026 30.7177 14.2626 31.0437C18.2226 31.3697 22.1569 30.1649 25.2565 27.677L31.6091 34.0344C31.7696 34.1964 31.9605 34.3249 32.1709 34.4126C32.3812 34.5003 32.6069 34.5455 32.8348 34.5455C33.0626 34.5455 33.2883 34.5003 33.4986 34.4126C33.709 34.3249 33.8999 34.1964 34.0604 34.0344C34.3715 33.7123 34.5455 33.2818 34.5455 32.8338C34.5455 32.3858 34.3715 31.9553 34.0604 31.6331ZM15.5723 27.677C13.1824 27.677 10.8461 26.9678 8.85894 25.639C6.87178 24.3102 5.32298 22.4216 4.40839 20.2119C3.4938 18.0022 3.2545 15.5707 3.72076 13.2249C4.18701 10.8791 5.33787 8.72438 7.02781 7.03315C8.71775 5.34193 10.8709 4.19019 13.2149 3.72358C15.5589 3.25698 17.9885 3.49646 20.1965 4.41174C22.4046 5.32702 24.2918 6.877 25.6195 8.86567C26.9473 10.8543 27.656 13.1924 27.656 15.5841C27.656 18.7914 26.3829 21.8672 24.1168 24.1351C21.8506 26.403 18.7771 27.677 15.5723 27.677Z" fill="white"/>
</svg>
