<svg width="24" height="24" viewBox="0 0 24 24" fill="none" xmlns="http://www.w3.org/2000/svg">
<path fill-rule="evenodd" clip-rule="evenodd" d="M12.0214 1.00007C10.8775 0.992507 9.82599 1.63846 9.31638 2.6602L8.84373 3.6055C8.65747 3.67467 8.47423 3.75042 8.29296 3.83206L7.29102 3.49808C6.2086 3.13676 5.00721 3.42322 4.20512 4.23831C3.4146 5.04175 3.14323 6.22458 3.50005 7.291L3.83403 8.29099C3.75064 8.47354 3.67262 8.65798 3.60161 8.84567L2.66022 9.31637C1.63954 9.82546 0.991712 10.8759 1.00008 12.0195C1.00833 13.1469 1.65238 14.1753 2.65826 14.6776L3.60552 15.1542C3.67496 15.3405 3.75047 15.5238 3.83208 15.705L3.50005 16.7049C3.13909 17.7863 3.42463 18.9867 4.23832 19.7889C5.04114 20.5804 6.22406 20.852 7.29102 20.4959L8.291 20.1639C8.47333 20.247 8.65822 20.3233 8.84568 20.3944L9.31638 21.3338C9.82599 22.3556 10.8775 23.0029 12.0214 22.9939C13.1486 22.9864 14.1775 22.3406 14.6796 21.3338L15.1503 20.3924C15.3389 20.3225 15.5254 20.2467 15.7089 20.1639L16.705 20.4959C17.7719 20.8519 18.9548 20.5806 19.7577 19.7889C20.5718 18.9862 20.8579 17.7848 20.4959 16.703L20.1639 15.703C20.2469 15.5212 20.3237 15.3371 20.3944 15.1503L21.3358 14.6776C22.3424 14.1756 22.9876 13.1474 22.9959 12.0195C23.0043 10.8759 22.3564 9.82546 21.3358 9.31637L20.3905 8.84372C20.321 8.65626 20.2457 8.47147 20.1639 8.28904L20.4959 7.291V7.28905C20.8518 6.22312 20.5809 5.04126 19.7909 4.23831C18.9888 3.42307 17.7874 3.13688 16.705 3.49808L15.703 3.83206C15.5212 3.74929 15.3372 3.67227 15.1503 3.6016L14.6796 2.6602C14.1775 1.65342 13.1487 1.00887 12.0214 1.00007ZM12.0058 3.00004C12.3819 3.00295 12.7217 3.21623 12.8906 3.55472L13.5253 4.82424C13.5849 4.94364 13.6678 5.04991 13.7691 5.13679C13.8704 5.22367 13.9881 5.28939 14.1152 5.33009C14.4919 5.45028 14.8578 5.60108 15.2089 5.78321C15.3274 5.84489 15.4571 5.8822 15.5903 5.89294C15.7234 5.90367 15.8574 5.88761 15.9843 5.84571L17.3358 5.39649H17.3378C17.702 5.2748 18.0976 5.37002 18.3651 5.64063C18.6286 5.9086 18.7175 6.29945 18.5975 6.6582V6.66015L18.1503 8.00584C18.1086 8.13159 18.0923 8.26437 18.1023 8.39648C18.1124 8.52858 18.1486 8.65737 18.2088 8.77536C18.3888 9.12723 18.538 9.49393 18.6561 9.87105C18.6963 9.99939 18.7621 10.1183 18.8493 10.2206C18.9366 10.323 19.0436 10.4067 19.1639 10.4667L20.4412 11.1054C20.7848 11.2766 20.9987 11.6229 20.9959 12.0038C20.9932 12.3791 20.78 12.7197 20.4412 12.8886H20.4393L19.1698 13.5253C19.0507 13.5851 18.9448 13.6681 18.8583 13.7694C18.7718 13.8707 18.7063 13.9882 18.6659 14.1151C18.545 14.4919 18.3935 14.8578 18.2108 15.2089C18.1489 15.3277 18.1114 15.4577 18.1007 15.5912C18.0899 15.7247 18.1061 15.8591 18.1483 15.9862L18.5975 17.3358C18.7193 17.6998 18.6268 18.0954 18.3553 18.3631C18.0878 18.6269 17.6967 18.7173 17.3378 18.5975H17.3358L15.9901 18.1502C15.8641 18.1083 15.731 18.0918 15.5985 18.1019C15.466 18.112 15.3369 18.1483 15.2187 18.2088C14.8663 18.3895 14.5007 18.5395 14.123 18.658C13.9946 18.6983 13.8757 18.764 13.7734 18.8512C13.671 18.9385 13.5873 19.0455 13.5273 19.1659L12.8906 20.4393C12.7217 20.7779 12.382 20.991 12.0058 20.994C11.6239 20.9969 11.2769 20.7831 11.1054 20.4393L10.4707 19.1717C10.4111 19.0523 10.3282 18.946 10.2269 18.8592C10.1256 18.7723 10.0079 18.7066 9.88083 18.6659C9.50342 18.5449 9.13671 18.3937 8.78514 18.2108C8.66636 18.1488 8.53635 18.1114 8.40281 18.1006C8.26928 18.0899 8.13495 18.1061 8.0078 18.1483L6.65821 18.5975C6.29931 18.7173 5.90822 18.6277 5.64065 18.3631C5.36912 18.0955 5.27668 17.6998 5.39846 17.3358V17.3338L5.84572 15.9882C5.88738 15.862 5.90349 15.7288 5.89309 15.5963C5.8827 15.4639 5.84601 15.3348 5.78518 15.2167C5.60477 14.8656 5.45466 14.4995 5.33596 14.1229C5.29595 13.9953 5.23073 13.877 5.14418 13.775C5.05763 13.673 4.95149 13.5894 4.83206 13.5292L3.55669 12.8886H3.55474C3.21602 12.7196 3.0028 12.3793 3.00005 12.0038C2.99727 11.6229 3.21121 11.2767 3.55474 11.1054L4.82425 10.4706C4.94366 10.4111 5.04993 10.3282 5.13681 10.2269C5.22368 10.1256 5.2894 10.0079 5.3301 9.88081C5.45101 9.504 5.60243 9.13812 5.78518 8.78708C5.84686 8.66856 5.88417 8.53889 5.8949 8.40571C5.90564 8.27254 5.88958 8.13856 5.84768 8.0117L5.39846 6.66015V6.6582C5.27844 6.29953 5.36739 5.90841 5.63088 5.64063C5.89838 5.36889 6.294 5.27517 6.65821 5.39649L8.00585 5.84571C8.13189 5.88767 8.26503 5.9041 8.39748 5.89404C8.52994 5.88398 8.65907 5.84763 8.77733 5.78711C9.12863 5.60721 9.49451 5.45793 9.87106 5.33985C9.9994 5.29962 10.1183 5.23391 10.2207 5.14665C10.323 5.0594 10.4067 4.9524 10.4668 4.83205L11.1054 3.55472C11.2769 3.21079 11.6239 2.99705 12.0058 3.00004ZM12.0019 6.99804C9.25236 6.99804 6.99611 9.24649 6.9961 11.996C6.99608 14.7456 9.25234 16.9999 12.0019 16.9999C14.7515 16.9999 16.9979 14.7456 16.9979 11.996C16.9979 9.24649 14.7514 6.99804 12.0019 6.99804ZM12.0019 8.99801C13.6706 8.99801 14.9979 10.3273 14.998 11.996C14.998 13.6647 13.6706 14.9999 12.0019 14.9999C10.3332 14.9999 8.99606 13.6647 8.99607 11.996C8.99608 10.3273 10.3332 8.99801 12.0019 8.99801Z" fill="black"/>
</svg>
