<svg width="25" height="30" viewBox="0 0 25 30" fill="none" xmlns="http://www.w3.org/2000/svg">
<path d="M24.8199 5.42046C24.6323 4.71752 24.5073 4.327 24.5073 4.327C24.3042 3.60062 23.7885 3.60062 23.0228 3.47566L18.8739 2.95236C18.3583 2.86644 18.3583 2.86644 18.1551 2.42124C17.4754 0.890393 17.2644 0 16.5222 0H8.47447C7.73221 0 7.52907 0.890393 6.84931 2.42905C6.64617 2.86644 6.64617 2.86644 6.13049 2.96017L1.97382 3.48347C1.21594 3.60844 0.669007 3.67873 0.465861 4.4051C0.465861 4.4051 0.372102 4.72533 0.17677 5.42046C-0.0732548 6.34991 -0.174827 6.24837 0.684633 6.24837H24.312C25.1715 6.25618 25.0777 6.34991 24.8199 5.42046ZM22.1399 8.74772H2.85673C1.55972 8.74772 1.49721 8.91955 1.57535 9.89586L3.03643 28.844C3.16144 29.8047 3.2552 30 4.40375 30H20.5929C21.7414 30 21.8352 29.8047 21.9602 28.844L23.4213 9.89586C23.4994 8.91174 23.4369 8.74772 22.1399 8.74772Z" fill="white"/>
</svg>
