<svg width="24" height="24" viewBox="0 0 24 24" fill="none" xmlns="http://www.w3.org/2000/svg">
<path d="M13.4119 11.9963L19.7119 5.70628C19.9002 5.51798 20.006 5.26258 20.006 4.99628C20.006 4.72998 19.9002 4.47458 19.7119 4.28628C19.5236 4.09798 19.2682 3.99219 19.0019 3.99219C18.7356 3.99219 18.4802 4.09798 18.2919 4.28628L12.0019 10.5863L5.71189 4.28628C5.52359 4.09798 5.26819 3.99219 5.00189 3.99219C4.73559 3.99219 4.4802 4.09798 4.29189 4.28628C4.10359 4.47458 3.9978 4.72998 3.9978 4.99628C3.9978 5.26258 4.10359 5.51798 4.29189 5.70628L10.5919 11.9963L4.29189 18.2863C4.19816 18.3792 4.12377 18.4898 4.073 18.6117C4.02223 18.7336 3.99609 18.8643 3.99609 18.9963C3.99609 19.1283 4.02223 19.259 4.073 19.3809C4.12377 19.5027 4.19816 19.6133 4.29189 19.7063C4.38486 19.8 4.49546 19.8744 4.61732 19.9252C4.73917 19.9759 4.86988 20.0021 5.00189 20.0021C5.1339 20.0021 5.26461 19.9759 5.38647 19.9252C5.50833 19.8744 5.61893 19.8 5.71189 19.7063L12.0019 13.4063L18.2919 19.7063C18.3849 19.8 18.4955 19.8744 18.6173 19.9252C18.7392 19.9759 18.8699 20.0021 19.0019 20.0021C19.1339 20.0021 19.2646 19.9759 19.3865 19.9252C19.5083 19.8744 19.6189 19.8 19.7119 19.7063C19.8056 19.6133 19.88 19.5027 19.9308 19.3809C19.9816 19.259 20.0077 19.1283 20.0077 18.9963C20.0077 18.8643 19.9816 18.7336 19.9308 18.6117C19.88 18.4898 19.8056 18.3792 19.7119 18.2863L13.4119 11.9963Z" fill="white"/>
</svg>
