<svg width="45" height="50" viewBox="0 0 45 50" fill="none" xmlns="http://www.w3.org/2000/svg">
<path d="M42.4999 15.0418L27.5 1.90755C26.125 0.67913 24.3449 0 22.5001 0C20.6553 0 18.8752 0.67913 17.5001 1.90755L2.50022 15.0418C1.70615 15.7512 1.07248 16.6213 0.641412 17.5944C0.210345 18.5674 -0.00823134 19.6211 0.000236984 20.6851V42.509C0.000236984 44.4957 0.790408 46.4011 2.19692 47.8059C3.60343 49.2108 5.51107 50 7.50018 50H37.5C39.4891 50 41.3967 49.2108 42.8032 47.8059C44.2098 46.4011 44.9999 44.4957 44.9999 42.509V20.6601C45.0048 19.6003 44.7845 18.5515 44.3536 17.583C43.9226 16.6145 43.2908 15.7484 42.4999 15.0418ZM27.5 45.006H17.5001V32.5209C17.5001 31.8587 17.7635 31.2235 18.2323 30.7553C18.7012 30.287 19.3371 30.0239 20.0001 30.0239H25.0001C25.6631 30.0239 26.299 30.287 26.7678 30.7553C27.2367 31.2235 27.5 31.8587 27.5 32.5209V45.006ZM40 42.509C40 43.1712 39.7366 43.8063 39.2677 44.2746C38.7989 44.7429 38.163 45.006 37.5 45.006H32.5V32.5209C32.5 30.5342 31.7098 28.6288 30.3033 27.2239C28.8968 25.8191 26.9892 25.0299 25.0001 25.0299H20.0001C18.011 25.0299 16.1033 25.8191 14.6968 27.2239C13.2903 28.6288 12.5001 30.5342 12.5001 32.5209V45.006H7.50018C6.83715 45.006 6.20127 44.7429 5.73243 44.2746C5.26359 43.8063 5.0002 43.1712 5.0002 42.509V20.6601C5.00065 20.3056 5.07668 19.9552 5.22324 19.6323C5.3698 19.3094 5.58353 19.0213 5.8502 18.7873L20.8501 5.67804C21.3063 5.27772 21.8928 5.05694 22.5001 5.05694C23.1073 5.05694 23.6938 5.27772 24.1501 5.67804L39.15 18.7873C39.4166 19.0213 39.6303 19.3094 39.7769 19.6323C39.9235 19.9552 39.9995 20.3056 40 20.6601V42.509Z" fill="white"/>
</svg>
