<svg width="30" height="30" viewBox="0 0 30 30" fill="none" xmlns="http://www.w3.org/2000/svg">
<path d="M29.8269 13.0503C29.6458 13.4825 29.3389 13.8502 28.9462 14.1056C28.5534 14.361 28.0929 14.4923 27.6245 14.4824H24.9046L17.7137 21.6321V24.4413C17.7137 24.748 17.6533 25.0517 17.536 25.3351C17.4187 25.6184 17.2467 25.8759 17.0299 26.0927C16.8132 26.3096 16.5558 26.4816 16.2726 26.599C15.9893 26.7164 15.6857 26.7768 15.3792 26.7768C15.0722 26.7789 14.768 26.7195 14.4843 26.6022C14.2006 26.4849 13.9432 26.3121 13.7274 26.0938L9.59785 21.9626L1.88944 29.6741C1.78707 29.7774 1.66527 29.8593 1.53108 29.9153C1.39689 29.9712 1.25296 30 1.10759 30C0.962215 30 0.818282 29.9712 0.68409 29.9153C0.549899 29.8593 0.428105 29.7774 0.325734 29.6741C0.22252 29.5717 0.140597 29.4499 0.08469 29.3156C0.0287835 29.1814 0 29.0374 0 28.892C0 28.7465 0.0287835 28.6025 0.08469 28.4683C0.140597 28.334 0.22252 28.2122 0.325734 28.1098L8.03415 20.3983L3.9597 16.2671C3.64809 15.9391 3.43844 15.5276 3.35621 15.0827C3.27399 14.6377 3.32274 14.1784 3.49654 13.7607C3.67034 13.3429 3.9617 12.9847 4.33521 12.7295C4.70872 12.4743 5.14829 12.3331 5.60049 12.3232H8.39754L15.5113 5.1294V2.34223C15.5078 1.87992 15.6421 1.42706 15.8972 1.04153C16.1523 0.656004 16.5165 0.355325 16.9432 0.177929C17.37 0.000531611 17.8399 -0.045524 18.293 0.0456485C18.746 0.136821 19.1616 0.36108 19.4866 0.68976L29.2983 10.5054C29.6298 10.8287 29.8572 11.2436 29.9514 11.697C30.0456 12.1504 30.0022 12.6217 29.8269 13.0503Z" fill="white"/>
</svg>
