<svg width="50" height="50" viewBox="0 0 50 50" fill="none" xmlns="http://www.w3.org/2000/svg">
<g clip-path="url(#clip0_1143_655)">
<path fill-rule="evenodd" clip-rule="evenodd" d="M25.0017 25C19.4592 25 14.9542 20.515 14.9542 15C14.9542 9.48496 19.4592 4.99996 25.0017 4.99996C30.5442 4.99996 35.0491 9.48496 35.0491 15C35.0491 20.515 30.5442 25 25.0017 25ZM34.4417 26.6824C36.5073 25.0376 38.1003 22.8749 39.0585 20.4144C40.0167 17.9539 40.3059 15.2834 39.8966 12.6748C38.9041 6.11733 33.4242 0.869942 26.8067 0.104942C17.6767 -0.952558 9.93165 6.12246 9.93165 15C9.93165 19.725 12.1317 23.9349 15.5617 26.6824C7.13165 29.8349 0.976649 37.2374 0.011649 47.2274C-0.0220911 47.5778 0.017659 47.9315 0.128341 48.2656C0.239022 48.5998 0.41821 48.9071 0.654445 49.1681C0.890679 49.429 1.17876 49.6376 1.50028 49.7808C1.82179 49.9241 2.16967 49.9988 2.52166 50C3.13865 50.0049 3.73523 49.7794 4.19446 49.3673C4.6537 48.9553 4.94247 48.3864 5.00415 47.7725C6.01165 36.615 14.5942 30 25.0017 30C35.4092 30 43.9916 36.615 44.9991 47.7725C45.0608 48.3864 45.3496 48.9553 45.8088 49.3673C46.2681 49.7794 46.8647 50.0049 47.4817 50C48.9717 50 50.1316 48.7049 49.9891 47.2274C49.0266 37.2374 42.8716 29.8349 34.4391 26.6824" fill="black"/>
</g>
<defs>
<clipPath id="clip0_1143_655">
<rect width="50" height="50" fill="white"/>
</clipPath>
</defs>
</svg>
