<svg width="22" height="22" viewBox="0 0 22 22" fill="none" xmlns="http://www.w3.org/2000/svg">
<path fill-rule="evenodd" clip-rule="evenodd" d="M0.84154 8.96826C-0.280513 10.0904 -0.280513 11.9096 0.84154 13.0317L2.38027 14.5703V16.7465C2.38027 18.3333 3.66669 19.6197 5.25351 19.6197H7.42962L8.96831 21.1584C10.0904 22.2805 11.9096 22.2805 13.0317 21.1584L14.5704 19.6197H16.7465C18.3334 19.6197 19.6197 18.3333 19.6197 16.7465V14.5703L21.1585 13.0317C22.2805 11.9096 22.2805 10.0904 21.1585 8.96826L19.6197 7.42957V5.25351C19.6197 3.66668 18.3334 2.38026 16.7465 2.38026H14.5704L13.0317 0.841574C11.9096 -0.280525 10.0904 -0.280525 8.96831 0.841574L7.42962 2.38026H5.25351C3.66669 2.38026 2.38027 3.66668 2.38027 5.25351V7.42957L0.84154 8.96826ZM6.32489 12.6311L8.64296 15C9.03254 15.385 9.64615 15.385 10.0455 15L15.8115 9.13689C16.1913 8.75195 16.1913 8.13009 15.8115 7.74516L15.7433 7.67606C15.3634 7.29104 14.7401 7.29104 14.3602 7.67606L11.8522 10.2227L9.34421 12.7693L7.77611 11.1702C7.39626 10.7853 6.77291 10.7853 6.39306 11.1702L6.32489 11.2393C5.94504 11.6243 5.94504 12.2461 6.32489 12.6311Z" fill="#008BFF"/>
<path d="M8.64296 15L6.32489 12.6311C5.94504 12.2461 5.94504 11.6243 6.32489 11.2393L6.39306 11.1702C6.77291 10.7853 7.39626 10.7853 7.77611 11.1702L9.34421 12.7693L11.8522 10.2227L14.3602 7.67606C14.7401 7.29104 15.3634 7.29104 15.7433 7.67606L15.8115 7.74516C16.1913 8.13009 16.1913 8.75195 15.8115 9.13689L10.0455 15C9.64615 15.385 9.03254 15.385 8.64296 15Z" fill="white" fill-opacity="0.01"/>
</svg>
